<svg xmlns="http://www.w3.org/2000/svg" width="1200" height="128"><defs><clipPath id="a"><path d="M0 127.693V-.368h1200v128.061z"/></clipPath></defs><g clip-path="url(#a)"><path fill="none" stroke="#fff" stroke-miterlimit="20" stroke-width="5.18" d="M0 124.85h988.002"/></g><g clip-path="url(#a)"><path fill="none" stroke="#fff" stroke-miterlimit="20" stroke-width="5.18" d="M1200 124.85v0h-105.604v0h-.883v0-2.803 0"/></g><g clip-path="url(#a)"><path fill="none" stroke="#fff" stroke-miterlimit="20" stroke-width="5.18" d="M1066.993 30.409c0-15.428-11.658-27.934-26.04-27.934s-26.04 12.506-26.04 27.934c0 15.429 11.658 27.935 26.04 27.935s26.04-12.506 26.04-27.935z"/></g><g clip-path="url(#a)"><path fill="none" stroke="#fff" stroke-miterlimit="20" stroke-width="5.18" d="M1028.147 65.99c-26.362 3.675-46.727 27.834-46.727 57.115 0 .589.066 1.16.083 1.746h53.509c-.063-22.026-2.602-42.364-6.865-58.86z"/></g><g clip-path="url(#a)"><path fill="none" stroke="#fff" stroke-miterlimit="20" stroke-width="5.18" d="M1053.759 65.99c26.362 3.675 46.726 27.834 46.726 57.115 0 .589-.066 1.16-.08 1.746h-53.51c.062-22.026 2.6-42.364 6.864-58.86z"/></g><g clip-path="url(#a)"><path fill="#fff" d="M1040.862 62.698c2.075 0 4.16.134 6.239.4-3.43 15.926-5.26 34.047-5.322 52.825h-1.652c-.06-18.789-1.895-36.917-5.326-52.848a49.288 49.288 0 016.061-.377"/></g></svg>