<svg xmlns="http://www.w3.org/2000/svg" width="71.486" height="79.074"><defs><clipPath id="a"><path data-name="Прямоугольник 52" fill="none" d="M0 0h71.486v79.074H0z"/></clipPath></defs><g data-name="Сгруппировать 33"><g data-name="Сгруппировать 32" clip-path="url(#a)"><path data-name="Контур 110" d="M15.605 59.66a13.385 13.385 0 0012.872-9.725H2.734a13.385 13.385 0 0012.871 9.725z" fill="none" stroke="#fff" stroke-miterlimit="10" stroke-width="4.5"/><path data-name="Контур 111" d="M3.358 50.115l12.244-38.434 12.252 38.434" fill="none" stroke="#fff" stroke-miterlimit="10" stroke-width="4.5"/><path data-name="Контур 112" d="M55.882 59.66a13.385 13.385 0 0012.87-9.725H43.008a13.385 13.385 0 0012.874 9.725z" fill="none" stroke="#fff" stroke-miterlimit="10" stroke-width="4.5"/><path data-name="Контур 113" d="M43.632 50.115L55.88 11.681l12.247 38.434" fill="none" stroke="#fff" stroke-miterlimit="10" stroke-width="4.5"/><path data-name="Линия 32" fill="#e6e6e6" d="M58.589 10.201H40.708"/><path data-name="Линия 33" fill="none" stroke="#fff" stroke-miterlimit="10" stroke-width="4.5" d="M58.589 10.201H40.708"/><path data-name="Линия 34" fill="#e6e6e6" d="M30.778 10.201H12.897"/><path data-name="Линия 35" fill="none" stroke="#fff" stroke-miterlimit="10" stroke-width="4.5" d="M30.778 10.201H12.897"/><path data-name="Контур 114" d="M30.778 10.201a5.05 5.05 0 012.06-3.209V2.067h5.809v4.925a5.051 5.051 0 012.061 3.209" fill="none" stroke="#fff" stroke-miterlimit="10" stroke-width="4.5"/><path data-name="Контур 115" d="M54.357 77.523a2.582 2.582 0 00.053-.516V70.23a2.544 2.544 0 00-2.541-2.536h-7.607a8.538 8.538 0 00-5.614-7.525V15.25a5.058 5.058 0 002.06-5.05" fill="none" stroke="#fff" stroke-miterlimit="10" stroke-width="4.5"/><path data-name="Контур 116" d="M30.778 10.201a4.986 4.986 0 00-.084.92 5.042 5.042 0 002.145 4.129v44.918a8.54 8.54 0 00-5.615 7.526h-7.612a2.543 2.543 0 00-2.537 2.536v6.778c0 .065 0 .128.01.191" fill="none" stroke="#fff" stroke-miterlimit="10" stroke-width="4.5"/></g></g></svg>