<svg xmlns="http://www.w3.org/2000/svg" width="62.519" height="80.818"><defs><clipPath id="a"><path data-name="Прямоугольник 47" fill="rgba(0,0,0,0)" stroke="#3581bb" d="M0 0h62.519v80.818H0z"/></clipPath></defs><g data-name="Сгруппировать 27"><g data-name="Сгруппировать 26" clip-path="url(#a)" stroke="#3581bb"><path data-name="Контур 96" d="M38.512 78.661c.973-8.362 6.432-18.287 6.432-18.287 1.5.429 10.084-.859 10.084-.859 5.472-.429 4.293-5.364 4.293-5.364-1.717-3.648 0-5.042 0-5.042 1.393-1.286-.967-2.038-.967-2.038 2.006-1.395.859-2.575.859-2.575a18.875 18.875 0 01-1.609-3.433c5.578-1.716.965-6.008.965-6.008a42.581 42.581 0 01-4.278-4.72c-1.7-2.575-.764-4.4-.764-4.4 1.395-2.038 0-4.72 0-4.72C49.99 7.27 39.79 4.482 39.79 4.482a38.08 38.08 0 00-10.868-2.213v8.191h8.816a5.06 5.06 0 015.052 5.054v8.7a5.06 5.06 0 01-5.055 5.054h-8.813v8.814a5.059 5.059 0 01-5.055 5.054h-8.7a5.059 5.059 0 01-5.053-5.054v-8.817H2.549a31.208 31.208 0 002.059 7.155c3.222 6.594 8.8 19.233 8.8 19.233a26.666 26.666 0 01-1.562 23.007h-.23" fill="rgba(0,0,0,0)" stroke-miterlimit="10" stroke-width="4.5"/><path data-name="Контур 97" d="M1.299 14.773a.75.75 0 00-.739.74v8.7a.749.749 0 00.739.74h13.13v13.13a.75.75 0 00.74.74h8.7a.749.749 0 00.74-.74V24.951h13.13a.749.749 0 00.74-.74v-8.7a.75.75 0 00-.74-.74H24.607V1.643a.75.75 0 00-.74-.741h-8.7a.751.751 0 00-.74.741v13.13z" fill="#fff"/></g></g></svg>