<svg xmlns="http://www.w3.org/2000/svg" width="74.847" height="83.47"><defs><clipPath id="a"><path data-name="Прямоугольник 53" fill="none" stroke="#f9eb35" d="M0 0h74.847v83.47H0z"/></clipPath></defs><g data-name="Сгруппировать 35"><g data-name="Сгруппировать 34" clip-path="url(#a)" fill="none" stroke="#f9eb35" stroke-miterlimit="10" stroke-width="4.5"><path data-name="Контур 118" d="M53.432 14.431a17.039 17.039 0 00-32.6-.319l16.642 7.828z"/><path data-name="Контур 119" d="M68.473 26.563l1.862-14.275-32.911 15.488"/><path data-name="Контур 120" d="M67.212 36.227L64.14 62.713 40.82 81.768"/><path data-name="Контур 121" d="M6.375 26.563L4.513 12.289l32.91 15.487"/><path data-name="Контур 122" d="M34.027 81.768L10.708 62.713 7.636 36.227"/><path data-name="Линия 36" d="M37.424 27.776v53.992"/><path data-name="Контур 123" d="M6.375 26.567a4.873 4.873 0 001.261 9.66"/><path data-name="Контур 124" d="M7.636 36.228a4.874 4.874 0 10-1.261-9.664"/><path data-name="Контур 125" d="M67.212 36.227a4.812 4.812 0 00.561.035 4.875 4.875 0 00.7-9.7"/><path data-name="Контур 126" d="M68.472 26.564a5 5 0 00-.7-.056 4.876 4.876 0 00-.561 9.719"/></g></g></svg>