<svg xmlns="http://www.w3.org/2000/svg" width="71.749" height="77.595"><defs><clipPath id="a"><path data-name="Прямоугольник 51" fill="none" stroke="#35af63" d="M0 0h71.749v77.595H0z"/></clipPath></defs><g data-name="Сгруппировать 31"><g data-name="Сгруппировать 30" clip-path="url(#a)" fill="none" stroke="#35af63" stroke-miterlimit="10"><path data-name="Контур 101" d="M28.02 77.404s5.675-12.2 6.645-23.831" stroke-width=".942"/><path data-name="Контур 102" d="M34.665 53.573c.969 11.628 6.644 23.831 6.644 23.831" stroke-width=".942"/><path data-name="Контур 103" d="M27.749 3.684a17.931 17.931 0 00-8.087 7.134" stroke-width="4.5"/><path data-name="Контур 104" d="M19.662 10.818a17.722 17.722 0 00-2.362 6.534" stroke-width="4.5"/><path data-name="Контур 105" d="M42.167 3.684a17.877 17.877 0 00-14.418 0" stroke-width="4.5"/><path data-name="Контур 106" d="M42.167 3.684a17.911 17.911 0 019.618 10.345 13.541 13.541 0 114.256 26.4c-.449 0-.891-.023-1.328-.064-2.521 3.673-8.421 6.444-15.611 7.175-1.587 9.776 2.748 22.478 5.075 28.35" stroke-width="4.5"/><path data-name="Контур 107" d="M19.662 43.821a26.99 26.99 0 0010.541 3.563c1.659 9.795-2.71 22.6-5.049 28.5" stroke-width="4.5"/><path data-name="Контур 108" d="M19.662 43.82c-.314-.2-.618-.4-.9-.607a13.22 13.22 0 11-3.372-26 13.359 13.359 0 011.914.14v-.654" stroke-width="4.5"/><path data-name="Линия 28" stroke-width="1.055" d="M34.665 54.195V12.931"/><path data-name="Линия 29" stroke-width=".942" d="M34.436 39.541l-11.73-11.73"/><path data-name="Линия 30" stroke-width=".942" d="M34.665 32.986l9.624-9.625"/><path data-name="Линия 31" stroke-width=".942" d="M34.436 23.361l-5.395-5.395"/></g></g></svg>