<svg xmlns="http://www.w3.org/2000/svg" width="66.314" height="86.671"><defs><clipPath id="a"><path data-name="Прямоугольник 54" fill="none" stroke="#973798" d="M0 0h66.314v86.671H0z"/></clipPath></defs><g data-name="Сгруппировать 37"><g data-name="Сгруппировать 36" clip-path="url(#a)" fill="none" stroke="#973798" stroke-miterlimit="10" stroke-width="4.5"><path data-name="Контур 127" d="M40.864 86.642l-.058-4.164c5.706-3.522 9.65-11.945 10.42-18.389l12.215-19.55a5 5 0 00-1.306-6.7l-.474-.329a4.447 4.447 0 00-6.356 1.379l-5.181 8.294V13.206a4.941 4.941 0 00-4.806-5.067h-.131a4.941 4.941 0 00-4.807 5.067v30.407a25.368 25.368 0 00-3.072-1.544 5.386 5.386 0 00.084-.927V7.17a4.929 4.929 0 00-4.8-5.056h-.152a4.93 4.93 0 00-4.794 5.056v32.812c-.3-.009-.6-.021-.909-.021-.71 0-1.41.034-2.1.085V12.977a4.718 4.718 0 00-4.589-4.838h-.567a4.718 4.718 0 00-4.589 4.838V42.65a25.245 25.245 0 00-3.037 1.748V23.357a4.944 4.944 0 00-4.808-5.07h-.125a4.943 4.943 0 00-4.808 5.07v34.18a5.291 5.291 0 00.2 1.46 19.4 19.4 0 00-.2 2.768c0 7.367 4.13 16.693 10.448 20.64l.42 3.45"/><path data-name="Контур 128" d="M43.519 57.292a8.787 8.787 0 00-8.546-9.01 8.382 8.382 0 00-6.723 3.452 8.38 8.38 0 00-6.722-3.452 8.787 8.787 0 00-8.546 9.01 9.149 9.149 0 003.627 7.366L28.25 76.931l11.643-12.274a9.149 9.149 0 003.626-7.365z"/></g></g></svg>