<svg data-name="Сгруппировать 29" xmlns="http://www.w3.org/2000/svg" width="77.654" height="78.897"><defs><clipPath id="a"><path data-name="Прямоугольник 50" fill="none" stroke="#cc3c5a" d="M0 0h77.654v78.897H0z"/></clipPath></defs><g data-name="Сгруппировать 28" clip-path="url(#a)" fill="none" stroke="#cc3c5a" stroke-miterlimit="10"><path data-name="Прямоугольник 48" d="M43.896 11.436l2.007-3.69A3.537 3.537 0 0150.7 6.33l9.78 5.32a3.537 3.537 0 011.418 4.798l-2.007 3.69a3.538 3.538 0 01-4.799 1.415l-9.779-5.319a3.537 3.537 0 01-1.417-4.797z" stroke-width="4.126"/><path data-name="Линия 24" stroke-width="4.126" d="M28.791 13.124l17.901-3.323"/><path data-name="Линия 25" stroke-width="4.126" d="M57.899 16.549l7.476 16.602"/><path data-name="Прямоугольник 49" d="M62.207 30.15l3.83-1.724a3.537 3.537 0 014.677 1.774l4.57 10.151a3.538 3.538 0 01-1.773 4.679l-3.83 1.724a3.537 3.537 0 01-4.678-1.774l-4.57-10.15a3.538 3.538 0 011.774-4.68z" stroke-width="4.126"/><path data-name="Линия 26" stroke-width="4.126" d="M70.427 42.667L60.389 57.858"/><path data-name="Контур 99" d="M31.489 12.178a14.105 14.105 0 11-17.522-9.533 14.106 14.106 0 0117.522 9.533z" stroke-width="4.126"/><path data-name="Контур 100" d="M57.675 77.077a14.112 14.112 0 10-13.293 0" stroke-width="4.126"/><path data-name="Линия 27" stroke-width="4.173" d="M5.174 24.182L1.326 27.35"/></g></svg>