<svg xmlns="http://www.w3.org/2000/svg" width="81" height="108"><defs><clipPath id="a"><path d="M0 108V0h81v108z"/></clipPath></defs><path d="M0 108V0h81v108z"/><g clip-path="url(#a)"><path d="M28.912 22.81c0-6.29 5.187-11.405 11.565-11.405 6.378 0 11.565 5.115 11.565 11.405v34.214c0 6.29-5.187 11.405-11.565 11.405-6.378 0-11.565-5.115-11.565-11.405zm11.565 57.024c12.756 0 23.13-10.23 23.13-22.81V22.81C63.606 10.23 53.232 0 40.476 0s-23.13 10.23-23.13 22.81v34.214z"/></g><g clip-path="url(#a)"><path d="M69.389 39.917v17.107c0 15.722-12.97 28.512-28.912 28.512-15.942 0-28.912-12.79-28.912-28.512V39.917H0v17.107c0 20.073 15.11 36.678 34.694 39.461v11.861H46.26v-11.86c19.585-2.784 34.695-19.39 34.695-39.462V39.917z"/></g></svg>