<svg xmlns="http://www.w3.org/2000/svg" xmlns:xlink="http://www.w3.org/1999/xlink" width="62.519" height="80.818" viewBox="0 0 62.519 80.818">
  <defs>
    <clipPath id="clip-path">
      <rect id="Прямоугольник_47" data-name="Прямоугольник 47" width="62.519" height="80.818" fill="rgba(0,0,0,0)" stroke="#3581bb" stroke-width="1"/>
    </clipPath>
  </defs>
  <g id="Сгруппировать_27" data-name="Сгруппировать 27" transform="translate(0 0)">
    <g id="Сгруппировать_26" data-name="Сгруппировать 26" transform="translate(0 0)" clip-path="url(#clip-path)">
      <path id="Контур_96" data-name="Контур 96" d="M38.622,78.759c.973-8.362,6.432-18.287,6.432-18.287,1.5.429,10.084-.859,10.084-.859,5.472-.429,4.293-5.364,4.293-5.364-1.717-3.648,0-5.042,0-5.042,1.393-1.286-.967-2.038-.967-2.038,2.006-1.395.859-2.575.859-2.575a18.875,18.875,0,0,1-1.609-3.433c5.578-1.716.965-6.008.965-6.008a42.581,42.581,0,0,1-4.278-4.72c-1.7-2.575-.764-4.4-.764-4.4,1.395-2.038,0-4.72,0-4.72C50.1,7.368,39.9,4.58,39.9,4.58A38.08,38.08,0,0,0,29.032,2.367v8.191h8.816A5.06,5.06,0,0,1,42.9,15.612v8.7a5.06,5.06,0,0,1-5.055,5.054H29.032V38.18a5.059,5.059,0,0,1-5.055,5.054h-8.7a5.059,5.059,0,0,1-5.053-5.054V29.363H2.659a31.208,31.208,0,0,0,2.059,7.155c3.222,6.594,8.8,19.233,8.8,19.233a26.666,26.666,0,0,1-1.562,23.007h-.23" transform="translate(-0.11 -0.098)" fill="rgba(0,0,0,0)" stroke="#3581bb" stroke-miterlimit="10" stroke-width="4.5"/>
      <path id="Контур_97" data-name="Контур 97" d="M1.323,14.812a.75.75,0,0,0-.739.74v8.7a.749.749,0,0,0,.739.74h13.13v13.13a.75.75,0,0,0,.74.74h8.7a.749.749,0,0,0,.74-.74V24.99H37.763a.749.749,0,0,0,.74-.74v-8.7a.75.75,0,0,0-.74-.74H24.631V1.682a.75.75,0,0,0-.74-.741h-8.7a.751.751,0,0,0-.74.741v13.13Z" transform="translate(-0.024 -0.039)" fill="#fff" stroke="#3581bb" stroke-width="1"/>
    </g>
  </g>
</svg>
