<svg xmlns="http://www.w3.org/2000/svg" xmlns:xlink="http://www.w3.org/1999/xlink" width="66.314" height="86.671" viewBox="0 0 66.314 86.671">
  <defs>
    <clipPath id="clip-path">
      <rect id="Прямоугольник_54" data-name="Прямоугольник 54" width="66.314" height="86.671" fill="none" stroke="#973798" stroke-width="1"/>
    </clipPath>
  </defs>
  <g id="Сгруппировать_37" data-name="Сгруппировать 37" transform="translate(0 0)">
    <g id="Сгруппировать_36" data-name="Сгруппировать 36" transform="translate(0 0)" clip-path="url(#clip-path)">
      <path id="Контур_127" data-name="Контур 127" d="M41,86.778l-.058-4.164c5.706-3.522,9.65-11.945,10.42-18.389l12.215-19.55a5,5,0,0,0-1.306-6.7l-.474-.329a4.447,4.447,0,0,0-6.356,1.379L50.26,47.319V13.342a4.941,4.941,0,0,0-4.806-5.067h-.131a4.941,4.941,0,0,0-4.807,5.067V43.749a25.368,25.368,0,0,0-3.072-1.544,5.386,5.386,0,0,0,.084-.927V7.306a4.929,4.929,0,0,0-4.8-5.056h-.152a4.93,4.93,0,0,0-4.794,5.056V40.118c-.3-.009-.6-.021-.909-.021-.71,0-1.41.034-2.1.085V13.113a4.718,4.718,0,0,0-4.589-4.838h-.567a4.718,4.718,0,0,0-4.589,4.838V42.786a25.245,25.245,0,0,0-3.037,1.748V23.493a4.944,4.944,0,0,0-4.808-5.07H7.058a4.943,4.943,0,0,0-4.808,5.07v34.18a5.291,5.291,0,0,0,.2,1.46,19.4,19.4,0,0,0-.2,2.768c0,7.367,4.13,16.693,10.448,20.64l.42,3.45" transform="translate(-0.136 -0.136)" fill="none" stroke="#973798" stroke-miterlimit="10" stroke-width="4.5"/>
      <path id="Контур_128" data-name="Контур 128" d="M44.355,60.4a8.787,8.787,0,0,0-8.546-9.01,8.382,8.382,0,0,0-6.723,3.452,8.38,8.38,0,0,0-6.722-3.452,8.787,8.787,0,0,0-8.546,9.01,9.149,9.149,0,0,0,3.627,7.366L29.086,80.039,40.729,67.765A9.149,9.149,0,0,0,44.355,60.4Z" transform="translate(-0.836 -3.108)" fill="none" stroke="#973798" stroke-miterlimit="10" stroke-width="4.5"/>
    </g>
  </g>
</svg>
