<svg id="Сгруппировать_29" data-name="Сгруппировать 29" xmlns="http://www.w3.org/2000/svg" xmlns:xlink="http://www.w3.org/1999/xlink" width="77.654" height="78.897" viewBox="0 0 77.654 78.897">
  <defs>
    <clipPath id="clip-path">
      <rect id="Прямоугольник_50" data-name="Прямоугольник 50" width="77.654" height="78.897" fill="none" stroke="#cc3c5a" stroke-width="1"/>
    </clipPath>
  </defs>
  <g id="Сгруппировать_28" data-name="Сгруппировать 28" clip-path="url(#clip-path)">
    <path id="Прямоугольник_48" data-name="Прямоугольник 48" d="M3.537,0h4.2a3.537,3.537,0,0,1,3.537,3.537V14.671a3.537,3.537,0,0,1-3.537,3.537h-4.2A3.538,3.538,0,0,1,0,14.669V3.537A3.537,3.537,0,0,1,3.537,0Z" transform="translate(42.206 14.543) rotate(-61.456)" fill="none" stroke="#cc3c5a" stroke-miterlimit="10" stroke-width="4.126"/>
    <line id="Линия_24" data-name="Линия 24" y1="3.323" x2="17.901" transform="translate(28.791 9.801)" fill="none" stroke="#cc3c5a" stroke-miterlimit="10" stroke-width="4.126"/>
    <line id="Линия_25" data-name="Линия 25" x2="7.476" y2="16.602" transform="translate(57.899 16.549)" fill="none" stroke="#cc3c5a" stroke-miterlimit="10" stroke-width="4.126"/>
    <path id="Прямоугольник_49" data-name="Прямоугольник 49" d="M3.538,0h4.2a3.537,3.537,0,0,1,3.537,3.537V14.67a3.538,3.538,0,0,1-3.538,3.538h-4.2A3.537,3.537,0,0,1,0,14.67V3.538A3.538,3.538,0,0,1,3.538,0Z" transform="translate(58.981 31.603) rotate(-24.238)" fill="none" stroke="#cc3c5a" stroke-miterlimit="10" stroke-width="4.126"/>
    <line id="Линия_26" data-name="Линия 26" x1="10.038" y2="15.191" transform="translate(60.389 42.667)" fill="none" stroke="#cc3c5a" stroke-miterlimit="10" stroke-width="4.126"/>
    <path id="Контур_99" data-name="Контур 99" d="M31.489,12.178A14.105,14.105,0,1,1,13.967,2.645,14.106,14.106,0,0,1,31.489,12.178Z" fill="none" stroke="#cc3c5a" stroke-miterlimit="10" stroke-width="4.126"/>
    <path id="Контур_100" data-name="Контур 100" d="M57.675,77.077a14.112,14.112,0,1,0-13.293,0" fill="none" stroke="#cc3c5a" stroke-miterlimit="10" stroke-width="4.126"/>
    <line id="Линия_27" data-name="Линия 27" x1="3.848" y2="3.168" transform="translate(1.326 24.182)" fill="none" stroke="#cc3c5a" stroke-miterlimit="10" stroke-width="4.173"/>
  </g>
</svg>
