<svg xmlns="http://www.w3.org/2000/svg" width="1200" height="142"><defs><clipPath id="a"><path d="M0 141.777V0h1200v141.777z"/></clipPath></defs><g clip-path="url(#a)"><path fill="none" stroke="#fff" stroke-miterlimit="20" stroke-width="5.18" d="M0 138.811h988.002"/></g><g clip-path="url(#a)"><path fill="none" stroke="#fff" stroke-miterlimit="20" stroke-width="5.18" d="M1200 138.811v0h-105.604v0h-.883v0-2.727 0"/></g><g clip-path="url(#a)"><path fill="none" stroke="#fff" stroke-miterlimit="20" stroke-width="5.55" d="M984.278 138.81v0h.4c-.138 0-.267-.03-.402-.042z"/></g><g clip-path="url(#a)"><path fill="none" stroke="#fff" stroke-miterlimit="20" stroke-width="5.55" d="M1106.816 138.81v0l.003-.042c-.136.013-.264.043-.403.043z"/></g><g clip-path="url(#a)"><path fill="none" stroke="#fff" stroke-miterlimit="20" stroke-width="5.55" d="M1070.1 134.006c0-2.643 2.07-4.805 4.603-4.805 0 0 5.626-9.61-4.604-21.89 10.23 12.28 4.604 21.89 4.604 21.89v0h31.713c.065 0 .126.018.19.02-3.159-30.002-29.29-53.41-61.06-53.41-31.77 0-57.9 23.408-61.059 53.41.064-.002.126-.02.19-.02h31.714v0s-5.627-9.61 4.603-21.89c-10.23 12.28-4.603 21.89-4.603 21.89 2.532 0 4.603 2.162 4.603 4.805 0 2.642-2.071 4.805-4.603 4.805h58.312c-2.532 0-4.604-2.163-4.604-4.805z"/></g><g clip-path="url(#a)"><path fill="none" stroke="#fff" stroke-miterlimit="20" stroke-width="5.55" d="M984.488 129.22c-2.444.109-4.413 2.211-4.413 4.786 0 2.5 1.859 4.545 4.201 4.762"/></g><g clip-path="url(#a)"><path fill="none" stroke="#fff" stroke-miterlimit="20" stroke-width="5.55" d="M984.677 138.81v0h31.714c2.532 0 4.603-2.162 4.603-4.804 0-2.643-2.071-4.805-4.603-4.805h-31.714v0"/></g><g clip-path="url(#a)"><path fill="none" stroke="#fff" stroke-miterlimit="20" stroke-width="5.55" d="M1106.818 138.77c2.343-.219 4.202-2.265 4.202-4.763 0-2.576-1.97-4.678-4.413-4.785"/></g><g clip-path="url(#a)"><path fill="none" stroke="#fff" stroke-miterlimit="20" stroke-width="5.55" d="M1106.607 129.22c-.064-.001-.125-.02-.19-.02h-31.714c-2.531 0-4.604 2.163-4.604 4.806 0 2.642 2.073 4.805 4.604 4.805h31.713c.138 0 .267-.03.402-.043"/></g><g clip-path="url(#a)"><path fill="none" stroke="#fff" stroke-miterlimit="20" stroke-width="5.18" d="M1071.907 48.224c0-15.01-11.658-27.18-26.04-27.18-14.383 0-26.04 12.17-26.04 27.18 0 15.011 11.657 27.18 26.04 27.18 14.382 0 26.04-12.169 26.04-27.18z"/></g><g clip-path="url(#a)"><path fill="none" stroke="#fff" stroke-miterlimit="20" stroke-width="5.55" d="M1046.314 13.88V0"/></g><g clip-path="url(#a)"><path fill="none" stroke="#fff" stroke-miterlimit="20" stroke-width="5.55" d="M1046.314 13.88V0"/></g><g clip-path="url(#a)"><path fill="none" stroke="#fff" stroke-miterlimit="20" stroke-width="5.55" d="M1079.05 49.117h13.3"/></g><g clip-path="url(#a)"><path fill="none" stroke="#fff" stroke-miterlimit="20" stroke-width="5.55" d="M1068.722 24.127l9.404-9.815"/></g><g clip-path="url(#a)"><path fill="none" stroke="#fff" stroke-miterlimit="20" stroke-width="5.55" d="M1013.578 49.117h-13.3"/></g><g clip-path="url(#a)"><path fill="none" stroke="#fff" stroke-miterlimit="20" stroke-width="5.55" d="M1023.907 24.127l-9.405-9.815"/></g></svg>