<svg xmlns="http://www.w3.org/2000/svg" width="1199" height="118"><defs><clipPath id="a"><path d="M0 117.694V-.168h1199.012v117.862z"/></clipPath></defs><g clip-path="url(#a)"><path fill="none" stroke="#fff" stroke-miterlimit="20" stroke-width="5.18" d="M0 114.447h1059.898"/></g><g clip-path="url(#a)"><path fill="none" stroke="#fff" stroke-miterlimit="20" stroke-width="5.18" d="M1093.802 114.96l105.197-.514"/></g><g clip-path="url(#a)"><path fill="none" stroke="#fff" stroke-miterlimit="20" stroke-width="5.18" d="M1088.179 15.944c0 7.388-5.812 13.378-12.981 13.378-7.17 0-12.982-5.99-12.982-13.378 0-7.389 5.811-13.38 12.982-13.38 7.169 0 12.98 5.991 12.98 13.38z"/></g><g clip-path="url(#a)"><path fill="none" stroke="#fff" stroke-linecap="round" stroke-miterlimit="20" stroke-width="5.18" d="M1059.899 114.447v0l12.702-19.568v0l2.597-24.083v0l22.068 21.406v0l-3.45 22.745v0"/></g><g clip-path="url(#a)"><path fill="none" stroke="#fff" stroke-miterlimit="20" stroke-width="5.18" d="M1075.198 74.81V29.323"/></g><g clip-path="url(#a)"><path fill="none" stroke="#fff" stroke-linecap="round" stroke-miterlimit="20" stroke-width="5.18" d="M1075.198 42.701v0l13.779 10.878v0l18.675-2.85v0"/></g></svg>